<?xml version="1.0" encoding="UTF-8"?><svg id="b" xmlns="http://www.w3.org/2000/svg" viewBox="0 0 64.93 83.5"><defs><style>.d{fill:#9945ff;}.e{fill:none;stroke:#9945ff;stroke-miterlimit:10;stroke-width:10px;}</style></defs><g id="c"><path class="d" d="M61.93,32.5H3c-1.66,0-3,1.34-3,3v45c0,1.66,1.34,3,3,3H61.93c1.66,0,3-1.34,3-3V35.5c0-1.66-1.34-3-3-3Zm-22.8,28.19v5.14c0,3.67-3,6.67-6.67,6.67h0c-3.67,0-6.67-3-6.67-6.67v-5.14c-2.25-1.99-3.69-4.98-3.69-8.32,0-6.01,4.64-10.88,10.36-10.88s10.36,4.87,10.36,10.88c0,3.34-1.44,6.32-3.69,8.32Z"/><path class="e" d="M10.28,38.5v-8c0-14.02,9.98-25.5,22.18-25.5h0c12.2,0,22.18,11.47,22.18,25.5v8"/></g></svg>