<?xml version="1.0" standalone="no"?>
<!DOCTYPE svg PUBLIC "-//W3C//DTD SVG 20010904//EN"
 "http://www.w3.org/TR/2001/REC-SVG-20010904/DTD/svg10.dtd">
<svg version="1.0" xmlns="http://www.w3.org/2000/svg"
 width="1504.000000pt" height="1504.000000pt" viewBox="0 0 1504.000000 1504.000000"
 preserveAspectRatio="xMidYMid meet">
<metadata>
Created by potrace 1.14, written by Peter Selinger 2001-2017
</metadata>
<g transform="translate(0.000000,1504.000000) scale(0.100000,-0.100000)"
fill="#000000" stroke="none">
<path d="M7440 12321 c-41 -10 -95 -26 -120 -35 -25 -9 -49 -18 -55 -20 -16
-4 -69 -30 -80 -39 -5 -4 -32 -22 -60 -40 -53 -34 -112 -83 -154 -131 -14 -16
-32 -35 -38 -42 -7 -7 -13 -17 -13 -23 0 -6 -4 -11 -9 -11 -9 0 -64 -89 -87
-140 -31 -69 -60 -169 -70 -238 -4 -34 -5 -192 -1 -212 2 -8 8 -37 12 -65 10
-57 12 -63 15 -70 1 -3 3 -8 4 -12 4 -25 52 -131 65 -147 9 -10 15 -20 14 -22
-4 -6 32 -64 40 -64 4 0 7 -5 7 -10 0 -20 115 -140 179 -188 49 -36 52 -42 45
-82 -8 -51 -9 -54 -16 -65 -7 -12 -3 -261 5 -294 70 -276 234 -490 465 -603
l67 -33 -65 -2 c-36 -2 -281 -4 -545 -6 -264 -2 -491 -6 -505 -9 -68 -14 -151
-42 -161 -54 -6 -8 -17 -14 -24 -14 -18 0 -100 -80 -127 -125 -26 -42 -53
-110 -64 -160 -9 -38 -10 -280 -1 -324 15 -79 54 -162 102 -218 37 -44 124
-105 165 -117 96 -28 114 -32 179 -40 24 -3 46 -8 49 -11 3 -3 -6 -15 -20 -27
-44 -40 -91 -128 -104 -193 -2 -11 -7 -31 -10 -45 -8 -30 -9 -243 -2 -285 23
-133 79 -231 173 -303 24 -19 94 -52 138 -67 67 -21 104 -26 237 -30 63 -2
120 -4 126 -4 8 -1 12 -478 12 -1803 0 -1653 1 -1809 17 -1873 9 -38 18 -79
21 -90 2 -11 8 -21 14 -23 6 -2 8 -7 5 -12 -3 -4 2 -13 10 -20 8 -7 15 -18 15
-25 0 -6 23 -35 51 -63 49 -49 139 -102 202 -117 l27 -7 1 -242 c0 -257 2
-314 14 -361 13 -55 48 -145 55 -145 4 0 10 -11 14 -23 7 -28 108 -127 130
-127 9 0 16 -4 16 -8 0 -13 117 -50 190 -62 108 -16 272 -3 353 29 15 6 27 8
27 6 0 -13 111 63 148 102 62 65 89 123 117 248 18 81 15 5252 -3 5327 -15 63
-52 150 -69 164 -7 6 -13 15 -13 20 0 32 -193 154 -244 154 -19 0 -17 -29 -20
290 -2 146 -6 279 -10 295 -19 83 -29 114 -48 155 -11 25 -27 52 -34 60 -8 8
-27 29 -43 46 -15 17 -34 34 -42 38 -63 31 -67 46 -11 41 12 -1 22 2 22 7 0 5
4 7 8 4 15 -9 124 24 200 60 211 99 362 259 448 475 24 61 28 76 38 133 2 14
7 39 11 58 16 70 7 224 -20 343 -1 6 -7 23 -13 38 -7 16 -12 32 -12 37 0 10
-71 152 -79 160 -4 3 -19 24 -34 46 -39 57 -128 144 -202 197 -16 12 -24 25
-21 35 25 82 30 303 10 387 -8 33 -17 70 -19 81 -8 33 -63 164 -74 174 -4 3
-15 21 -25 40 -58 104 -229 255 -351 309 -16 7 -42 20 -57 28 -16 8 -28 12
-28 9 0 -2 -28 5 -62 16 -90 28 -295 33 -398 9z"/>
<path d="M5 8101 c1 -2192 5 -3999 8 -4016 3 -16 9 -41 12 -55 14 -67 79 -195
120 -235 36 -36 115 -87 162 -105 69 -26 95 -30 213 -35 52 -2 100 -4 106 -4
7 -1 11 -27 12 -71 0 -38 3 -74 7 -80 3 -5 3 -10 -2 -10 -10 0 -9 -133 1 -149
4 -6 4 -11 -1 -11 -11 0 -7 -138 6 -201 13 -61 59 -169 72 -169 5 0 9 -7 9
-16 0 -17 110 -131 155 -159 53 -34 115 -66 115 -59 0 4 7 1 15 -6 8 -7 15
-10 15 -7 0 3 21 -1 47 -9 40 -12 379 -14 2293 -11 2036 2 2250 4 2297 19 28
9 54 13 57 10 3 -3 6 -1 6 4 0 6 19 19 43 29 44 19 50 24 105 78 33 32 99 147
85 147 -5 0 -2 4 5 9 7 4 15 21 17 37 2 16 7 40 10 54 10 43 12 231 3 284 -13
75 -47 165 -79 213 -42 60 -166 153 -183 136 -3 -3 -6 -2 -6 4 0 13 -108 35
-182 37 -21 0 -38 5 -38 10 0 6 -5 5 -12 -2 -7 -7 -17 -8 -29 -2 -11 7 -20 7
-24 0 -4 -7 -13 -7 -24 0 -12 6 -22 5 -28 -1 -8 -8 -13 -7 -17 0 -5 8 -13 8
-27 1 -10 -6 -19 -7 -19 -3 0 9 -63 8 -79 -1 -5 -4 -12 -2 -16 4 -4 6 -11 7
-17 4 -15 -10 -68 -11 -68 -2 0 4 -13 3 -30 -2 -16 -5 -30 -5 -30 -2 0 9 -64
7 -79 -3 -6 -3 -11 -1 -11 5 0 8 -6 8 -20 0 -13 -7 -26 -7 -38 -1 -13 7 -22 7
-29 0 -8 -8 -13 -7 -17 0 -5 8 -13 8 -27 1 -10 -6 -19 -7 -19 -2 0 5 -23 6
-50 2 -28 -4 -50 -4 -50 0 0 7 -43 6 -56 -3 -5 -3 -16 -2 -24 3 -8 5 -21 5
-31 -1 -11 -6 -20 -5 -24 1 -4 7 -13 7 -26 0 -13 -8 -19 -7 -19 0 0 7 -6 8
-19 0 -13 -6 -22 -7 -26 0 -3 5 -15 6 -29 0 -12 -4 -29 -4 -36 0 -8 5 -19 5
-26 -1 -8 -7 -14 -6 -19 1 -4 7 -12 7 -26 0 -10 -6 -19 -7 -19 -3 0 9 -63 8
-79 -1 -5 -4 -12 -2 -16 4 -4 6 -11 7 -17 4 -15 -10 -68 -11 -68 -2 0 4 -14 3
-30 -2 -16 -5 -30 -5 -30 -2 0 9 -64 7 -79 -3 -6 -3 -11 -1 -11 5 0 8 -6 8
-20 0 -13 -7 -26 -7 -38 -1 -13 7 -22 7 -29 0 -8 -8 -13 -7 -17 0 -5 8 -13 8
-27 1 -10 -6 -19 -7 -19 -3 0 9 -63 8 -79 -1 -5 -4 -12 -2 -16 4 -4 6 -11 7
-17 4 -15 -10 -68 -11 -68 -2 0 4 -14 3 -30 -2 -17 -5 -30 -5 -30 -2 0 9 -64
7 -79 -3 -6 -3 -11 -1 -11 5 0 8 -6 8 -20 0 -14 -8 -20 -8 -20 0 0 7 -6 8 -19
0 -14 -7 -22 -7 -26 0 -4 6 -11 7 -17 4 -15 -10 -68 -11 -68 -2 0 4 -14 3 -30
-2 -17 -5 -30 -5 -30 -2 0 9 -64 7 -79 -3 -6 -3 -11 -1 -11 5 0 8 -6 8 -20 0
-14 -8 -20 -8 -20 0 0 7 -6 8 -19 0 -14 -7 -22 -7 -26 0 -4 6 -11 7 -17 4 -15
-10 -68 -11 -68 -2 0 4 -14 3 -30 -2 -17 -5 -30 -5 -30 -2 0 9 -64 7 -79 -3
-6 -3 -11 -1 -11 5 0 8 -6 8 -20 0 -14 -8 -20 -8 -20 0 0 7 -6 8 -19 0 -14 -7
-22 -7 -26 0 -4 6 -11 7 -17 4 -15 -10 -68 -11 -68 -2 0 4 -13 3 -30 -2 -17
-5 -30 -5 -30 -2 0 9 -64 7 -79 -3 -6 -3 -11 -1 -11 5 0 8 -6 8 -20 0 -13 -7
-26 -7 -38 -1 -13 7 -22 7 -29 0 -8 -8 -13 -7 -17 0 -5 8 -13 8 -27 1 -10 -6
-19 -7 -19 -3 0 9 -63 8 -79 -1 -5 -4 -12 -2 -16 4 -4 6 -11 7 -17 4 -15 -10
-68 -11 -68 -2 0 4 -13 3 -30 -2 -16 -5 -30 -5 -30 -2 0 9 -64 7 -79 -3 -6 -3
-11 -1 -11 5 0 8 -6 8 -20 0 -13 -7 -26 -7 -38 -1 -13 7 -22 7 -29 0 -8 -8
-13 -7 -17 0 -5 8 -13 8 -27 1 -10 -6 -19 -7 -19 -2 0 5 -22 6 -50 2 -28 -4
-50 -4 -50 0 0 7 -43 6 -56 -3 -5 -3 -16 -2 -23 3 -8 4 -27 4 -42 0 -17 -5
-31 -5 -35 1 -4 8 -8 2868 -5 3211 l1 48 73 -2 c39 -1 78 1 85 5 6 5 12 5 12
0 0 -4 95 -8 210 -8 116 0 210 4 210 8 0 5 5 5 11 1 16 -9 101 -10 117 -1 6 5
12 5 12 0 0 -10 91 -10 108 1 6 4 12 4 12 -1 0 -10 91 -10 108 1 6 4 12 4 12
-1 0 -10 91 -10 108 1 6 4 12 4 12 -1 0 -4 93 -7 207 -6 115 1 208 3 208 3 0
1 45 3 100 6 124 5 230 12 230 14 0 1 15 3 34 5 19 2 53 7 75 10 23 4 52 8 66
10 71 8 214 41 395 89 6 2 23 8 38 14 16 7 34 12 41 12 7 0 16 3 20 8 4 4 11
7 14 8 4 0 20 6 35 12 16 7 35 12 43 12 8 0 14 4 14 8 0 5 6 9 13 9 17 0 255
119 267 134 3 3 10 8 16 10 22 8 222 154 218 160 -1 3 9 13 25 22 44 26 185
179 256 277 22 30 42 57 45 60 3 3 19 28 35 55 17 28 35 59 42 70 24 42 111
221 118 245 4 14 11 30 15 35 7 9 69 188 77 223 4 18 8 32 22 82 7 25 15 58
17 73 2 16 6 37 9 47 9 29 16 62 20 100 2 19 7 51 11 70 4 19 8 44 9 55 1 11
5 47 9 80 14 120 16 142 23 265 8 164 9 1259 0 1375 -4 50 -9 106 -12 125 -11
69 -25 155 -30 178 -3 12 -7 30 -9 40 -2 10 -11 41 -19 69 -9 28 -13 54 -10
57 4 3 1 6 -5 6 -7 0 -11 3 -10 8 9 35 -136 323 -197 388 -5 6 -17 21 -25 34
-44 65 -180 185 -290 255 -71 46 -228 122 -266 130 -7 2 -38 12 -70 23 -68 24
-207 57 -277 67 -27 3 -59 9 -70 11 -66 14 -338 16 -2218 19 l-2057 2 3 -3986z
m4150 2896 c11 -3 34 -8 50 -12 145 -35 264 -169 268 -302 1 -24 4 -43 7 -43
8 0 5 -224 -3 -237 -5 -7 -4 -13 0 -13 12 0 11 -224 -2 -232 -7 -5 -7 -8 0 -8
12 0 14 -224 3 -236 -4 -4 -4 -12 0 -18 11 -18 9 -290 -3 -298 -7 -5 -7 -8 1
-8 12 0 12 -139 0 -158 -4 -7 -4 -12 1 -12 4 0 8 -11 8 -25 0 -14 -2 -25 -5
-25 -3 0 -5 -19 -6 -43 -4 -182 -55 -434 -118 -587 -15 -36 -29 -69 -30 -75
-6 -24 -30 -65 -38 -65 -4 0 -7 -3 -5 -8 2 -7 -52 -96 -83 -137 -21 -26 -159
-165 -165 -165 -3 0 -26 -15 -52 -34 -46 -33 -171 -95 -203 -101 -8 -2 -16 -4
-17 -5 -2 -2 -7 -4 -13 -5 -5 -1 -11 -4 -12 -5 -2 -1 -12 -4 -23 -6 -11 -2
-49 -10 -85 -18 -36 -8 -99 -18 -140 -22 -71 -7 -1738 -13 -1770 -6 -13 3 -15
153 -14 1290 1 774 -2 1294 -7 1305 -7 11 -6 17 1 17 7 0 8 6 0 19 -5 11 -10
30 -10 44 0 13 -3 27 -7 31 -4 4 -8 13 -8 19 -2 33 -23 78 -60 132 l-42 60
1281 -1 c704 -1 1290 -4 1301 -7z"/>
<path d="M11447 9734 c-1 -1 -63 -5 -137 -8 -135 -7 -153 -8 -245 -20 -84 -11
-144 -20 -195 -31 -14 -3 -36 -8 -50 -11 -14 -3 -35 -7 -47 -10 -12 -2 -33 -8
-45 -13 -13 -5 -26 -9 -31 -10 -70 -9 -367 -127 -382 -152 -4 -5 -15 -9 -26
-9 -10 0 -19 -4 -19 -9 0 -5 -9 -12 -19 -16 -21 -6 -133 -84 -190 -132 -106
-88 -268 -276 -304 -353 -4 -8 -16 -28 -27 -45 -11 -16 -22 -37 -26 -45 -3 -8
-10 -24 -16 -35 -15 -27 -69 -157 -73 -175 -2 -8 -4 -16 -5 -17 -2 -2 -3 -6
-5 -10 -1 -5 -4 -15 -8 -23 -9 -24 -27 -85 -31 -106 -2 -11 -10 -39 -17 -64
-6 -25 -13 -52 -14 -60 -1 -8 -7 -46 -13 -85 -18 -113 -21 -136 -29 -225 -10
-109 -10 -1542 0 -1680 4 -58 9 -125 12 -150 14 -139 17 -167 21 -185 2 -11 7
-40 10 -65 3 -25 7 -52 9 -60 3 -8 7 -32 11 -54 3 -21 8 -48 10 -60 2 -11 6
-32 9 -46 15 -80 97 -367 114 -399 7 -12 9 -26 6 -31 -3 -6 -2 -10 3 -10 6 0
13 -12 17 -27 10 -44 78 -187 197 -415 15 -29 28 -60 28 -69 0 -9 12 -61 26
-115 14 -55 27 -106 29 -114 7 -35 78 -236 88 -248 5 -6 7 -12 4 -12 -6 0 59
-152 87 -205 9 -16 16 -35 16 -42 0 -6 3 -13 8 -15 4 -1 20 -28 36 -58 33 -62
147 -240 184 -285 94 -118 246 -276 331 -345 23 -19 50 -42 59 -50 8 -8 25
-22 37 -30 155 -105 227 -152 260 -171 44 -25 256 -132 268 -135 4 -1 9 -3 12
-4 3 -1 8 -3 13 -5 4 -1 21 -7 37 -14 47 -20 188 -72 205 -76 8 -2 27 -8 43
-14 54 -21 268 -76 337 -86 14 -2 25 -4 25 -5 0 -2 37 -10 75 -16 19 -2 46 -7
60 -10 14 -3 36 -7 50 -9 14 -2 25 -4 25 -5 0 -1 14 -3 30 -5 104 -11 164 -18
190 -21 17 -2 59 -6 95 -9 36 -3 90 -8 120 -12 30 -3 467 -7 970 -9 1037 -4
1006 -6 1159 69 35 17 125 107 148 148 18 31 42 92 49 124 37 157 25 351 -29
475 -58 134 -201 226 -380 244 -26 3 -52 8 -57 11 -6 3 -10 1 -10 -6 0 -9 -3
-10 -11 -2 -7 7 -2 19 18 41 88 95 123 200 127 382 2 87 -17 219 -37 255 -6
11 -12 22 -12 25 -4 22 -18 50 -26 50 -5 0 -9 6 -9 13 0 25 -94 108 -154 136
-76 36 -145 52 -230 54 -36 1 -66 4 -66 7 0 8 -97 3 -111 -6 -7 -4 -10 -3 -6
2 3 5 -10 9 -28 9 -18 0 -31 -3 -28 -7 2 -5 -8 -3 -22 2 -34 13 -38 13 -29 -2
5 -7 3 -8 -5 -3 -17 10 -105 10 -121 0 -9 -5 -11 -4 -6 3 5 9 0 9 -18 2 -14
-5 -26 -6 -26 -2 0 10 -42 8 -58 -2 -7 -4 -12 -3 -12 1 0 10 -104 8 -121 -3
-7 -4 -10 -3 -7 2 4 5 -9 9 -27 9 -18 0 -31 -3 -28 -7 2 -5 -8 -3 -22 2 -34
13 -38 13 -29 -2 5 -7 3 -8 -5 -3 -17 10 -105 10 -121 0 -9 -5 -11 -4 -6 3 5
9 0 9 -18 2 -14 -5 -26 -6 -26 -2 0 10 -42 8 -58 -2 -7 -4 -12 -3 -12 1 0 10
-104 8 -121 -3 -7 -4 -10 -3 -6 2 3 5 -10 9 -28 9 -18 0 -31 -3 -28 -7 2 -5
-7 -4 -21 2 -17 6 -26 6 -30 -3 -2 -7 -5 -7 -5 -2 -1 12 -103 11 -122 -1 -7
-4 -9 -3 -6 3 4 7 -7 8 -33 3 -21 -4 -44 -4 -51 1 -7 4 -20 4 -30 -1 -9 -5
-19 -6 -23 -3 -4 4 -55 8 -114 9 -113 2 -217 9 -292 20 -25 3 -52 6 -60 6 -8
0 -22 2 -30 5 -8 3 -38 7 -67 9 -28 2 -64 9 -79 14 -15 6 -29 9 -31 6 -3 -2
-33 4 -69 14 -35 10 -65 18 -67 18 -3 -1 -119 32 -137 39 -8 3 -24 8 -35 10
-11 2 -39 12 -62 23 -24 11 -47 20 -53 20 -17 0 -276 136 -328 172 -83 57
-155 119 -232 199 -94 97 -105 110 -107 129 -1 8 -5 47 -9 85 -10 86 -11 1247
-1 1330 14 120 16 133 57 280 6 22 15 49 20 60 25 57 65 141 70 145 3 3 21 28
40 55 42 61 119 138 174 173 23 15 43 29 46 32 15 17 184 86 235 96 11 2 31 6
45 10 14 3 37 7 53 10 15 2 39 7 55 10 15 4 666 8 1447 9 998 2 1435 6 1470
14 28 6 61 14 75 17 54 12 157 71 202 116 52 52 86 112 113 198 28 91 27 329
-2 400 -3 8 -7 18 -7 22 -1 3 -4 10 -8 14 -5 4 -8 14 -8 21 0 16 -54 98 -85
128 -22 22 -53 43 -109 74 -29 17 -51 25 -126 46 -21 6 -129 18 -142 16 -25
-3 -22 15 3 33 53 37 111 151 136 266 8 35 7 229 -1 265 -4 17 -9 41 -12 55
-11 58 -67 157 -113 201 -83 80 -222 133 -366 139 -67 2 -2725 6 -2728 4z"/>
</g>
</svg>
